<?xml version="1.0" encoding="utf-8"?>
<!-- Generator: Adobe Illustrator 21.0.0, SVG Export Plug-In . SVG Version: 6.00 Build 0)  -->
<svg version="1.1" id="Layer_1" xmlns="http://www.w3.org/2000/svg" xmlns:xlink="http://www.w3.org/1999/xlink" x="0px" y="0px"
	 viewBox="0 0 994.2 350.8" style="enable-background:new 0 0 994.2 350.8;" xml:space="preserve">
<style type="text/css">
	.st0{fill:#003775;}
	.st1{fill:#E71E26;}
</style>
<g>
	<path class="st0" d="M115.6,269.1v38.8H0V145.7h113.5v38.8h-69v22.8h58.9v36.1H44.5v25.6H115.6z"/>
	<path class="st0" d="M136.3,307.9V145.7h62.4c13.4,0,25.2,2.1,35.4,6.4c10.2,4.3,18.7,10,25.6,17.4c6.9,7.3,12,15.9,15.5,25.7
		c3.5,9.8,5.3,20.3,5.3,31.4c0,12.3-1.9,23.5-5.8,33.5c-3.9,10-9.4,18.5-16.6,25.6c-7.2,7.1-15.8,12.6-25.8,16.4s-21.2,5.8-33.6,5.8
		H136.3z M235.2,226.6c0-6.2-0.8-12-2.5-17.1c-1.7-5.2-4.1-9.6-7.2-13.2c-3.1-3.7-7-6.5-11.5-8.6c-4.6-2.1-9.7-3.1-15.3-3.1h-17.8
		v84.5h17.8c5.8,0,11-1.1,15.5-3.2c4.6-2.1,8.4-5.1,11.5-8.9c3.1-3.8,5.5-8.3,7.1-13.5C234.4,238.3,235.2,232.7,235.2,226.6z"/>
	<path class="st0" d="M692.8,269.1v38.8H577.2V145.7h113.5v38.8h-69v22.8h58.9v36.1h-58.9v25.6H692.8z"/>
	<path class="st0" d="M829.1,269.1v38.8H713.5V145.7H827v38.8h-69v22.8H817v36.1h-58.9v25.6H829.1z"/>
	<path class="st0" d="M894.4,228.2v79.7h-44.5V145.7h34.7l65.1,82.4v-82.4h44.5v162.2h-35.4L894.4,228.2z"/>
	<path class="st0" d="M370.2,268.4c5.2,0,9.6-1.1,13.2-3.4c3.7-2.3,6.6-5.3,8.9-9c2.3-3.7,4-8,5-12.9c1.1-4.9,1.6-10,1.6-15.3V112.4
		h44.5v115.4c0,11.3-1.5,21.8-4.3,31.6c-2.9,9.8-7.4,18.3-13.5,25.5c-6.1,7.2-13.7,12.8-23,16.9c-9.2,4.1-20.1,6.2-32.5,6.2
		c-12.9,0-24-2.2-33.2-6.5c-9.2-4.3-16.8-10.2-22.7-17.5c-5.9-7.3-10.3-15.8-13-25.5c-2.7-9.7-4.1-19.9-4.1-30.7v-41.4l44.5-44.5
		v85.9c0,5.3,0.5,10.5,1.6,15.4c1.1,4.9,2.7,9.3,5,13c2.3,3.7,5.2,6.7,8.8,8.9C360.6,267.3,365,268.4,370.2,268.4z"/>
	<path class="st0" d="M410.2,297.8l-11.4-17.2v-196l44.5-44.5V206l99.4-111.8l0.1,50.1L484,217l63,89.5h-51.2l-40.2-59.6l-12.3,12.8
		v-0.3L410.2,297.8z"/>
	<polygon class="st1" points="464.8,26.5 491.3,0 539.3,0 539.3,42.1 512.8,68.7 512.8,25.5 	"/>
</g>
</svg>
